# Blender v2.64 (sub 0) OBJ File: 'pellet.blend'
# www.blender.org
mtllib pellet.mtl
o Icosphere
v 0.000000 0.000000 -1.000000
v -0.525725 -0.723607 -0.447220
v -0.850649 0.276388 -0.447220
v 0.000000 0.894426 -0.447216
v 0.850649 0.276388 -0.447220
v 0.525725 -0.723607 -0.447220
v -0.850649 -0.276388 0.447220
v -0.525725 0.723607 0.447220
v 0.525725 0.723607 0.447220
v 0.850649 -0.276388 0.447220
v 0.000000 -0.894426 0.447216
v 0.000000 0.000000 1.000000
v -0.309011 -0.425323 -0.850654
v -0.809012 -0.262869 -0.525738
v -0.499995 0.162456 -0.850654
v 0.309011 -0.425323 -0.850654
v 0.000000 -0.850648 -0.525736
v -0.499997 0.688189 -0.525736
v 0.000000 0.525730 -0.850652
v 0.499997 0.688189 -0.525736
v 0.499995 0.162456 -0.850654
v 0.809012 -0.262869 -0.525738
v 0.309013 -0.951058 0.000000
v -0.309013 -0.951058 0.000000
v -0.809017 -0.587786 0.000000
v -1.000000 0.000000 0.000000
v -0.809017 0.587786 0.000000
v -0.309013 0.951058 0.000000
v 0.309013 0.951058 0.000000
v 0.809017 0.587786 0.000000
v 1.000000 0.000000 0.000000
v 0.809017 -0.587786 0.000000
v -0.499997 -0.688189 0.525736
v -0.809012 0.262869 0.525738
v 0.000000 0.850648 0.525736
v 0.809012 0.262869 0.525738
v 0.499997 -0.688189 0.525736
v 0.000000 -0.525730 0.850652
v -0.499995 -0.162456 0.850654
v -0.309011 0.425323 0.850654
v 0.309011 0.425323 0.850654
v 0.499995 -0.162456 0.850654
vn -0.315090 -0.102381 -0.943523
vn -0.268032 -0.700224 -0.661699
vn -0.194736 0.268034 -0.943523
vn 0.194737 0.268034 -0.943523
vn 0.315090 -0.102381 -0.943523
vn -0.268032 -0.904989 -0.330385
vn -0.943521 -0.024747 -0.330386
vn -0.315095 0.889697 -0.330385
vn 0.748784 0.574602 -0.330388
vn 0.777865 -0.534576 -0.330387
vn -0.583126 -0.802609 -0.125627
vn -0.943522 0.306569 -0.125629
vn 0.000000 0.992077 -0.125628
vn 0.943522 0.306569 -0.125629
vn 0.583126 -0.802609 -0.125627
vn -0.628425 -0.408946 0.661698
vn -0.583122 0.471300 0.661699
vn 0.268032 0.700224 0.661699
vn 0.748779 -0.038530 0.661699
vn 0.194736 -0.724042 0.661695
vn -0.748779 0.038530 -0.661699
vn -0.577345 -0.187594 -0.794658
vn -0.583122 -0.471300 -0.661699
vn 0.268032 -0.700224 -0.661699
vn -0.000000 -0.607060 -0.794656
vn 0.000000 -0.331305 -0.943524
vn -0.194736 0.724042 -0.661695
vn -0.356821 0.491119 -0.794657
vn -0.628425 0.408946 -0.661698
vn 0.628425 0.408946 -0.661698
vn 0.356821 0.491119 -0.794657
vn 0.194736 0.724042 -0.661695
vn 0.583122 -0.471300 -0.661699
vn 0.577345 -0.187594 -0.794658
vn 0.748779 0.038530 -0.661699
vn 0.000000 -0.992077 0.125628
vn 0.000000 -0.982246 -0.187599
vn 0.268031 -0.904989 -0.330385
vn -0.943522 -0.306569 0.125629
vn -0.934171 -0.303531 -0.187597
vn -0.777865 -0.534576 -0.330387
vn -0.583126 0.802609 0.125627
vn -0.577348 0.794656 -0.187595
vn -0.748784 0.574602 -0.330388
vn 0.583126 0.802609 0.125627
vn 0.577348 0.794656 -0.187595
vn 0.315095 0.889697 -0.330385
vn 0.943522 -0.306569 0.125629
vn 0.934171 -0.303531 -0.187597
vn 0.943521 -0.024747 -0.330386
vn -0.748784 -0.574602 0.330388
vn -0.577348 -0.794656 0.187595
vn -0.315095 -0.889697 0.330385
vn -0.777865 0.534576 0.330387
vn -0.934171 0.303531 0.187597
vn -0.943521 0.024747 0.330386
vn 0.268032 0.904989 0.330385
vn -0.000000 0.982246 0.187599
vn -0.268031 0.904989 0.330385
vn 0.943521 0.024747 0.330386
vn 0.934171 0.303531 0.187597
vn 0.777865 0.534576 0.330387
vn 0.315095 -0.889697 0.330385
vn 0.577348 -0.794656 0.187595
vn 0.748784 -0.574602 0.330388
vn -0.194737 -0.268034 0.943523
vn -0.356821 -0.491119 0.794657
vn -0.194736 -0.724042 0.661695
vn -0.315090 0.102381 0.943523
vn -0.577345 0.187594 0.794658
vn -0.748779 -0.038530 0.661699
vn -0.000000 0.331305 0.943524
vn 0.000000 0.607060 0.794656
vn -0.268032 0.700224 0.661699
vn 0.315090 0.102381 0.943523
vn 0.577345 0.187594 0.794658
vn 0.583122 0.471300 0.661699
vn 0.194737 -0.268034 0.943523
vn 0.356821 -0.491119 0.794657
vn 0.628425 -0.408946 0.661699
usemtl 
s off
f 1//1 13//1 15//1
f 2//2 13//2 17//2
f 1//3 15//3 19//3
f 1//4 19//4 21//4
f 1//5 21//5 16//5
f 2//6 17//6 24//6
f 3//7 14//7 26//7
f 4//8 18//8 28//8
f 5//9 20//9 30//9
f 6//10 22//10 32//10
f 2//11 24//11 25//11
f 3//12 26//12 27//12
f 4//13 28//13 29//13
f 5//14 30//14 31//14
f 6//15 32//15 23//15
f 7//16 33//16 39//16
f 8//17 34//17 40//17
f 9//18 35//18 41//18
f 10//19 36//19 42//19
f 11//20 37//20 38//20
f 15//21 14//21 3//21
f 15//22 13//22 14//22
f 13//23 2//23 14//23
f 17//24 16//24 6//24
f 17//25 13//25 16//25
f 13//26 1//26 16//26
f 19//27 18//27 4//27
f 19//28 15//28 18//28
f 15//29 3//29 18//29
f 21//30 20//30 5//30
f 21//31 19//31 20//31
f 19//32 4//32 20//32
f 16//33 22//33 6//33
f 16//34 21//34 22//34
f 21//35 5//35 22//35
f 24//36 23//36 11//36
f 24//37 17//37 23//37
f 17//38 6//38 23//38
f 26//39 25//39 7//39
f 26//40 14//40 25//40
f 14//41 2//41 25//41
f 28//42 27//42 8//42
f 28//43 18//43 27//43
f 18//44 3//44 27//44
f 30//45 29//45 9//45
f 30//46 20//46 29//46
f 20//47 4//47 29//47
f 32//48 31//48 10//48
f 32//49 22//49 31//49
f 22//50 5//50 31//50
f 25//51 33//51 7//51
f 25//52 24//52 33//52
f 24//53 11//53 33//53
f 27//54 34//54 8//54
f 27//55 26//55 34//55
f 26//56 7//56 34//56
f 29//57 35//57 9//57
f 29//58 28//58 35//58
f 28//59 8//59 35//59
f 31//60 36//60 10//60
f 31//61 30//61 36//61
f 30//62 9//62 36//62
f 23//63 37//63 11//63
f 23//64 32//64 37//64
f 32//65 10//65 37//65
f 39//66 38//66 12//66
f 39//67 33//67 38//67
f 33//68 11//68 38//68
f 40//69 39//69 12//69
f 40//70 34//70 39//70
f 34//71 7//71 39//71
f 41//72 40//72 12//72
f 41//73 35//73 40//73
f 35//74 8//74 40//74
f 42//75 41//75 12//75
f 42//76 36//76 41//76
f 36//77 9//77 41//77
f 38//78 42//78 12//78
f 38//79 37//79 42//79
f 37//80 10//80 42//80
